<?xml version="1.0" encoding="UTF-8"?>
<svg version="1.1" xmlns="http://www.w3.org/2000/svg" width="618" height="664">
<path d="M0 0 C1.53924637 0.00223572 1.53924637 0.00223572 3.10958862 0.0045166 C14.88649961 0.03526662 26.60797019 0.13217836 38.3125 1.5625 C39.22483398 1.67166748 40.13716797 1.78083496 41.07714844 1.89331055 C47.29333821 2.82305647 51.42025012 4.84848962 55.81738281 9.49902344 C58.14584798 12.88876984 58.6689794 15.48146607 59.33203125 19.53125 C59.4496431 20.22633667 59.56725494 20.92142334 59.68843079 21.63757324 C60.05922146 23.86017696 60.40651972 26.08552536 60.75 28.3125 C60.98334032 29.77737895 61.21690025 31.24222294 61.45068359 32.70703125 C62.13829471 37.07183011 62.79008387 41.44158993 63.4375 45.8125 C63.66444405 47.32946743 63.89165657 48.84639471 64.11914062 50.36328125 C64.66583618 54.01256634 65.20896657 57.66237061 65.75 61.3125 C67.1617783 61.84644179 68.57970244 62.36415104 70 62.875 C70.78890625 63.16503906 71.5778125 63.45507812 72.390625 63.75390625 C75.02255239 64.37702813 76.26959117 64.35919505 78.75 63.3125 C80.24558576 61.91584002 80.24558576 61.91584002 81.4921875 60.09375 C81.99435791 59.41658936 82.49652832 58.73942871 83.01391602 58.04174805 C83.54557373 57.30609619 84.07723145 56.57044434 84.625 55.8125 C85.77458472 54.26487384 86.92702419 52.71936489 88.08203125 51.17578125 C88.97849365 49.97622803 88.97849365 49.97622803 89.89306641 48.75244141 C92.93550564 44.75478986 96.11393175 40.87315382 99.3125 37 C100.18720947 35.93458984 100.18720947 35.93458984 101.07958984 34.84765625 C110.01673717 24.04697426 110.01673717 24.04697426 115.6809082 22.93261719 C122.94601622 22.67398038 128.50929198 25.42903659 134.9375 28.5625 C136.07445312 29.10390625 137.21140625 29.6453125 138.3828125 30.203125 C199.00235819 59.39782259 199.00235819 59.39782259 206.75 75.3125 C208.52577464 84.62034255 205.29154546 92.36802491 201.5625 100.75 C200.58858845 103.01899285 199.61592842 105.28852331 198.64453125 107.55859375 C198.16709473 108.66831543 197.6896582 109.77803711 197.19775391 110.92138672 C195.71751684 114.38858618 194.2454471 117.85579013 192.82421875 121.34765625 C192.40100342 122.37383057 191.97778809 123.40000488 191.54174805 124.45727539 C190.66691766 127.61211394 190.7093319 129.23208343 191.75 132.3125 C194.31324618 135.52272133 194.31324618 135.52272133 197.75 137.3125 C207.38436217 136.18768822 217.58785245 130.45852753 226.52124023 126.77734375 C245.71059272 118.89078234 245.71059272 118.89078234 253.03515625 121.46875 C260.46894334 126.51730756 265.48382005 134.05752979 270.08984375 141.6328125 C271.60730722 144.08217706 273.22701524 146.37113268 274.9375 148.6875 C306.7300985 193.8514822 306.7300985 193.8514822 304.75 214.3125 C302.79573084 221.0128514 297.07979499 224.29433424 291.75 228.3125 C290.06264981 229.63226339 288.38284161 230.96124607 286.70336914 232.29101562 C284.33262128 234.1658501 281.9513114 236.02702135 279.56982422 237.88818359 C278.34077281 238.8501216 277.11326931 239.81404016 275.88720703 240.77978516 C274.09502804 242.19113202 272.29810667 243.59621719 270.5 245 C269.95110107 245.43425293 269.40220215 245.86850586 268.83666992 246.31591797 C264.97806582 249.3125 264.97806582 249.3125 262.75 249.3125 C263.74 253.6025 264.73 257.8925 265.75 262.3125 C267.03648437 262.48265625 268.32296875 262.6528125 269.6484375 262.828125 C274.56332221 263.48347366 279.47492858 264.16104773 284.38574219 264.84619141 C286.67219907 265.16310959 288.95934217 265.47510772 291.24707031 265.78271484 C294.75036854 266.25648594 298.25018299 266.75123022 301.75 267.25 C302.85263184 267.3953418 303.95526367 267.54068359 305.09130859 267.69042969 C312.47102211 268.76960869 316.49004476 270.3242077 322 275.375 C324.66732995 279.85230385 325.11410607 284.17992755 325.75 289.3125 C325.88535156 290.30056641 325.88535156 290.30056641 326.0234375 291.30859375 C329.09124258 314.23421823 328.81847427 338.00756607 326.5 361 C326.39083252 362.13252197 326.28166504 363.26504395 326.16918945 364.43188477 C325.26848767 372.18500759 324.04214963 378.50368535 317.9296875 383.71875 C314.48188768 385.44688554 311.68236234 386.20074622 307.875 386.8125 C306.84161499 386.9813269 306.84161499 386.9813269 305.78735352 387.15356445 C292.49973521 389.23335351 279.10251206 390.71293577 265.75 392.3125 C264.10056268 400.76829425 264.10056268 400.76829425 266.96875 408.34765625 C268.0515625 409.01667969 269.134375 409.68570312 270.25 410.375 C271.4538593 411.17140948 272.65559826 411.97103107 273.85546875 412.7734375 C274.49145996 413.17916992 275.12745117 413.58490234 275.78271484 414.00292969 C279.21182009 416.28559543 282.36979571 418.90199934 285.5625 421.5 C286.19704102 422.00917969 286.83158203 422.51835937 287.48535156 423.04296875 C292.01147955 426.67906109 296.48699163 430.36811854 300.75 434.3125 C301.29140625 434.80621094 301.8328125 435.29992187 302.390625 435.80859375 C305.18959924 438.90516008 305.13841684 442.69557543 305.08496094 446.70800781 C304.43403282 451.76930602 302.0936195 456.14357892 299.875 460.6875 C299.37685791 461.73679687 298.87871582 462.78609375 298.36547852 463.8671875 C296.85174152 467.02845924 295.30859251 470.17312861 293.75 473.3125 C293.30736816 474.20485352 292.86473633 475.09720703 292.40869141 476.01660156 C284.20057474 492.39479031 274.53972233 507.5333005 263.75 522.3125 C263.31792236 522.93060547 262.88584473 523.54871094 262.44067383 524.18554688 C262.00650146 524.80623047 261.5723291 525.42691406 261.125 526.06640625 C260.73441406 526.63045166 260.34382812 527.19449707 259.94140625 527.77563477 C256.88008769 531.72461025 253.26887651 533.47087431 248.4453125 534.234375 C241.16015865 534.85875995 234.93045549 531.89225185 228.3125 529.1875 C227.05477295 528.69343352 225.79631069 528.20123442 224.53710938 527.7109375 C217.9212298 525.11291175 211.40844932 522.32201354 204.96777344 519.31567383 C202.06039015 518.00056617 199.97290823 517.08764594 196.75 517.3125 C194.16805739 518.92475376 192.15977437 520.59717583 190.75 523.3125 C190.9326498 529.23035351 193.75647368 534.82531663 195.9375 540.25 C196.34097656 541.27037354 196.74445313 542.29074707 197.16015625 543.34204102 C198.95346813 547.86779765 200.76957575 552.38243164 202.64453125 556.875 C202.91950439 557.54023682 203.19447754 558.20547363 203.4777832 558.89086914 C204.19485787 560.61724397 204.92501812 562.33816762 205.65625 564.05859375 C207.33187972 569.04359218 208.16754638 573.54595761 206.9375 578.75 C194.91967425 602.51619352 149.32236517 621.20197988 125.75 630.3125 C125.09 630.6425 124.43 630.9725 123.75 631.3125 C118.91645312 631.96688789 113.99480776 632.43095175 109.53125 630.20703125 C104.37072251 625.92421642 100.46153413 620.28849451 96.4765625 614.93359375 C93.06435621 610.35922273 89.46187358 605.93952679 85.86035156 601.51367188 C82.93914705 597.89619106 80.26872677 594.22189818 77.75 590.3125 C73.46 590.9725 69.17 591.6325 64.75 592.3125 C64.77416992 593.60849121 64.79833984 594.90448242 64.82324219 596.23974609 C64.82017672 601.07127123 64.29980348 605.70568362 63.578125 610.4765625 C63.45443542 611.31287201 63.33074585 612.14918152 63.20330811 613.01083374 C62.94117623 614.76426793 62.67544617 616.51716771 62.40625 618.26953125 C62.00030895 620.935471 61.6169758 623.60406113 61.234375 626.2734375 C60.97533531 627.98718787 60.71496368 629.70073755 60.453125 631.4140625 C60.34252747 632.2027774 60.23192993 632.99149231 60.11798096 633.80410767 C59.09027073 640.24737919 57.1348819 645.19733689 52.125 649.640625 C47.67695087 651.84405674 43.65531176 652.50694187 38.75 653.0625 C37.70618164 653.18391357 36.66236328 653.30532715 35.58691406 653.43041992 C23.91489171 654.58446555 12.21894407 654.6075048 0.5 654.625 C-0.46679688 654.62858521 -1.43359375 654.63217041 -2.4296875 654.63586426 C-12.87718669 654.65665662 -23.26069513 654.39007649 -33.671875 653.48046875 C-34.94203461 653.3771801 -34.94203461 653.3771801 -36.237854 653.27180481 C-42.59082601 652.64660344 -50.05445633 651.50937978 -54.5625 646.5625 C-61.6666358 637.16053052 -61.17654805 620.74208884 -62.62060547 609.52539062 C-64.0894507 598.18349702 -65.83402565 586.8946515 -67.67529297 575.60766602 C-67.88041504 574.33334717 -68.08553711 573.05902832 -68.296875 571.74609375 C-68.57289551 570.06084595 -68.57289551 570.06084595 -68.85449219 568.34155273 C-69.21007952 565.61823664 -69.32783718 563.0537085 -69.25 560.3125 C-70.09304687 560.126875 -70.09304687 560.126875 -70.953125 559.9375 C-109.52363428 550.47234435 -143.87098508 526.21715523 -172.25 499.3125 C-173.38115234 498.24515625 -173.38115234 498.24515625 -174.53515625 497.15625 C-179.92104573 491.93097352 -184.59225672 486.18675584 -189.25 480.3125 C-189.93964844 479.45527344 -190.62929687 478.59804688 -191.33984375 477.71484375 C-195.93650664 471.93376466 -197.59738997 468.27992594 -197.54296875 460.82421875 C-197.0081145 456.23873497 -194.40126645 453.46376645 -191.25 450.3125 C-192.51700723 449.3283875 -193.7887619 448.35038503 -195.0625 447.375 C-196.12404297 446.55708984 -196.12404297 446.55708984 -197.20703125 445.72265625 C-201.04226116 443.07539431 -204.16714559 443.25909348 -208.6875 443.375 C-215.43911487 443.4166338 -221.65639813 442.70900013 -228.25 441.3125 C-229.66152344 441.03792969 -229.66152344 441.03792969 -231.1015625 440.7578125 C-246.00147632 437.50473158 -258.34792636 430.62985803 -270.25 421.3125 C-271.38115234 420.45785156 -271.38115234 420.45785156 -272.53515625 419.5859375 C-277.38397874 415.73570478 -280.72832008 411.79200664 -281.6640625 405.55078125 C-282.35581297 391.33348868 -273.02092365 381.52759461 -265.00390625 370.69140625 C-262.22311446 366.91968642 -259.48803694 363.11530597 -256.75 359.3125 C-255.66823677 357.81360861 -254.5862049 356.31491108 -253.50390625 354.81640625 C-252.96781738 354.07406738 -252.43172852 353.33172852 -251.87939453 352.56689453 C-250.24280851 350.30255001 -248.60408835 348.03976419 -246.96484375 345.77734375 C-241.18659571 337.79785836 -235.45231045 329.79095801 -229.78686523 321.73095703 C-225.45097581 315.57211294 -221.044 309.46591646 -216.61328125 303.375 C-215.15073957 301.35986071 -213.6992925 299.3371778 -212.25 297.3125 C-211.83218262 296.74474854 -211.41436523 296.17699707 -210.98388672 295.59204102 C-208.80823391 292.53594803 -208.24291363 291.52154791 -208.375 287.625 C-208.64365739 286.18302257 -208.93758666 284.74563419 -209.25 283.3125 C-215.42619752 251.05902409 -212.18913895 220.27855725 -194.27734375 192.22265625 C-189.23235576 185.07141085 -183.43557055 178.49807055 -177.25 172.3125 C-177.03746618 169.31622516 -177.03746618 169.31622516 -177.1953125 165.79296875 C-177.22066392 164.44597492 -177.24538126 163.09896903 -177.26953125 161.75195312 C-177.31855773 159.64357165 -177.37384309 157.53583458 -177.44189453 155.42797852 C-178.04117732 135.6068182 -171.12007886 120.05224717 -157.65380859 105.71630859 C-146.61941453 94.68191453 -131.88608568 89.1298922 -116.53393555 88.98291016 C-115.00119995 88.99136963 -115.00119995 88.99136963 -113.4375 89 C-112.37378174 89.00563965 -111.31006348 89.0112793 -110.21411133 89.01708984 C-94.75856236 89.25656372 -83.51777816 94.04351205 -71.25 103.3125 C-69.60338593 92.63220304 -67.96642031 81.95043321 -66.33609009 71.26763916 C-65.86818612 68.20540605 -65.39831457 65.14347837 -64.9284668 62.08154297 C-63.56696989 53.18120397 -62.21504394 44.28299141 -61.04296875 35.35546875 C-60.87265137 34.07744385 -60.70233398 32.79941895 -60.52685547 31.48266602 C-60.22815555 29.20221309 -59.94106427 26.92019361 -59.66845703 24.63647461 C-58.71337261 17.37046819 -57.22761528 11.29011528 -51.875 5.9375 C-46.36721913 2.52792137 -40.64348561 1.80625998 -34.328125 1.20703125 C-33.02370453 1.08120415 -33.02370453 1.08120415 -31.69293213 0.95283508 C-21.13810522 0.01863602 -10.58901279 -0.03808728 0 0 Z M-89.25 412.3125 C-91.67072022 415.24752659 -93.89961263 418.2594168 -96.109375 421.35546875 C-102.07227914 429.59254619 -108.60472803 435.96590096 -117.25 441.3125 C-117.96800781 441.76238281 -118.68601563 442.21226562 -119.42578125 442.67578125 C-132.28716271 450.27034471 -145.53174162 453.36614836 -160.25 454.3125 C-160.58089889 457.42658112 -160.58089889 457.42658112 -158.30859375 459.51171875 C-157.44363281 460.33285156 -156.57867187 461.15398437 -155.6875 462 C-152.57914654 465.00822443 -149.58494058 467.99233335 -146.8125 471.3125 C-132.44277306 488.04344967 -113.46171225 499.9515042 -94.25 510.3125 C-92.53490234 511.24255859 -92.53490234 511.24255859 -90.78515625 512.19140625 C-78.16543325 518.77368884 -64.84045194 523.50682741 -51.125 527.25 C-50.36807861 527.46156738 -49.61115723 527.67313477 -48.83129883 527.89111328 C-43.52029302 529.26732495 -38.73418464 529.49168623 -33.25 529.3125 C-32.6621875 527.7346875 -32.6621875 527.7346875 -32.0625 526.125 C-29.97677384 521.41315498 -27.61915774 518.30907945 -22.71484375 516.24609375 C-21.24724609 515.69115234 -21.24724609 515.69115234 -19.75 515.125 C-4.52933145 509.11536334 6.67190463 496.89636159 13.53515625 482.23828125 C20.38074189 465.75164574 20.4198391 449.07626577 14.75 432.3125 C8.90315628 418.78219594 -1.73359844 405.73549402 -15.25 399.3125 C-41.64772319 389.36757333 -68.61169858 391.3510519 -89.25 412.3125 Z M-181.25 432.3125 C-181.58 432.9725 -181.91 433.6325 -182.25 434.3125 C-181.59 434.3125 -180.93 434.3125 -180.25 434.3125 C-180.58 433.6525 -180.91 432.9925 -181.25 432.3125 Z " fill="#F5F5F4" transform="translate(287.25,3.6875)"/>
<path d="M0 0 C6.2807061 4.78144077 10.90515008 10.19918551 15.5 16.5625 C20.83080907 15.93287688 25.73779623 14.71556984 30.875 13.1875 C62.49987906 4.10124743 97.40425209 3.68927719 129.5 10.5625 C130.35255371 10.74441895 131.20510742 10.92633789 132.08349609 11.11376953 C137.63741148 12.34760541 143.07485289 13.852158 148.5 15.5625 C149.34949219 15.8301416 150.19898438 16.0977832 151.07421875 16.37353516 C179.3287171 25.50468782 204.25207209 40.4195385 226.12109375 60.40625 C228.27510509 62.35865436 230.47027726 64.24527359 232.6875 66.125 C236.69545209 69.62895812 240.08859703 73.48562828 243.5 77.5625 C244.26183594 78.43648438 245.02367187 79.31046875 245.80859375 80.2109375 C280.36834231 120.43179932 297.9667452 174.70330254 294.5 227.5625 C289.17821305 283.60330452 264.4175565 336.03843089 220.95703125 372.60546875 C194.89658809 393.81515167 165.05101662 408.30776417 132.3125 415.8125 C131.66144287 415.96364258 131.01038574 416.11478516 130.33959961 416.27050781 C116.06608947 419.34635117 102.03133611 419.83453337 87.5 419.6875 C85.74219269 419.67743498 83.98437969 419.66831545 82.2265625 419.66015625 C77.98423075 419.63845647 73.74218106 419.60412768 69.5 419.5625 C72.27871686 416.78378314 74.22325048 417.18600902 78.125 416.875 C95.16974387 415.10347343 112.24673517 409.28864484 127.5 401.5625 C128.14839844 401.23556152 128.79679687 400.90862305 129.46484375 400.57177734 C166.62716343 381.49258447 194.44107345 348.56142714 208.1875 309.25 C221.51210867 267.21611937 218.62772656 224.32292654 199.5 184.5625 C199.17 184.5625 198.84 184.5625 198.5 184.5625 C198.28085937 185.65304687 198.06171875 186.74359375 197.8359375 187.8671875 C194.24119859 205.20035083 188.97846751 221.00358927 180.5 236.5625 C179.96076904 237.56265137 179.96076904 237.56265137 179.41064453 238.58300781 C173.1524858 250.12750947 173.1524858 250.12750947 169.5 252.5625 C169.74012817 251.27448486 169.74012817 251.27448486 169.98510742 249.96044922 C174.05967227 223.07102598 168.37170115 199.87005172 153.5 177.5625 C153.73976563 179.03589844 153.73976563 179.03589844 153.984375 180.5390625 C157.35409719 204.35415583 151.45344792 228.81846024 137.47265625 248.40234375 C133.8880961 252.92031558 130.06457992 257.02383676 125.89282227 260.99072266 C117.53309222 268.97463292 111.92460253 277.85142921 110.5 289.5625 C110.37109375 290.29339844 110.2421875 291.02429688 110.109375 291.77734375 C109.51118265 297.76923712 111.47560445 301.9931526 114.25 307.1875 C124.1109915 325.70681677 125.47498155 347.09056464 119.39453125 367.22265625 C117.29293946 373.37223715 115.01761799 379.09064979 111.5 384.5625 C111.17 383.9025 110.84 383.2425 110.5 382.5625 C111.35546875 380.5234375 111.35546875 380.5234375 112.6875 377.9375 C121.10915935 359.72977838 122.94436349 337.58057968 116.22314453 318.46289062 C107.76348945 296.23130551 92.81702803 281.75043945 71.5 271.5625 C54.55435664 264.23676803 34.49193207 264.83141506 17.2421875 270.6640625 C0.83443655 277.1684139 -10.95765181 287.04890027 -21.38671875 301.10546875 C-31.59652443 314.46312527 -45.02273541 322.97903281 -61.5 326.5625 C-65.61443127 326.96302289 -69.68126501 326.99043627 -73.8125 326.9375 C-74.90812256 326.93169922 -76.00374512 326.92589844 -77.13256836 326.91992188 C-84.93450871 326.79484067 -92.05816738 326.0480425 -99.5 323.5625 C-99.5 322.9025 -99.5 322.2425 -99.5 321.5625 C-98.10938063 320.61280872 -96.71352562 319.66992248 -95.29296875 318.765625 C-93.34849751 317.4608382 -91.55162884 316.05819186 -89.75 314.5625 C-89.17765625 314.088125 -88.6053125 313.61375 -88.015625 313.125 C-86.34609653 311.40383663 -85.46043881 309.74702749 -84.5 307.5625 C-85.26441406 307.88863281 -86.02882813 308.21476562 -86.81640625 308.55078125 C-108.95812168 317.5833222 -131.36802072 318.21989504 -153.59765625 309.265625 C-162.23418454 305.60740368 -172.05206614 300.51585386 -178.5 293.5625 C-179.63362973 290.54763128 -179.77718042 289.20140622 -178.48828125 286.23046875 C-177.93527344 285.41191406 -177.38226563 284.59335937 -176.8125 283.75 C-176.1628125 282.78707031 -175.513125 281.82414062 -174.84375 280.83203125 C-171.73793449 276.44965008 -168.50172884 272.16341644 -165.25488281 267.88500977 C-161.59135988 263.05248175 -158.0429008 258.15333954 -154.5625 253.1875 C-150.43671007 247.30305501 -146.27551018 241.44738259 -142.0625 235.625 C-141.52318848 234.87951904 -140.98387695 234.13403809 -140.42822266 233.3659668 C-138.23812663 230.34047668 -136.04627414 227.31626105 -133.85449219 224.29199219 C-127.39154929 215.37136452 -120.93385514 206.44762143 -114.62597656 197.41625977 C-112.52162428 194.40398704 -110.40257435 191.4359605 -108.16015625 188.5234375 C-104.50733152 183.87225341 -104.50733152 183.87225341 -103.3125 178.25 C-103.704375 177.033125 -104.09625 175.81625 -104.5 174.5625 C-105.16879375 172.39648896 -105.83524377 170.22975357 -106.5 168.0625 C-106.850625 167.0003125 -107.20125 165.938125 -107.5625 164.84375 C-114.07341258 142.05555598 -109.71782072 116.56141048 -98.53515625 96.08203125 C-91.52550105 83.75993402 -82.2892321 73.69381228 -71.5 64.5625 C-71.70496094 63.92183594 -71.90992188 63.28117187 -72.12109375 62.62109375 C-76.81661702 47.54599272 -77.28337551 33.17798734 -70.109375 18.76953125 C-68.67583447 16.27592523 -67.15238439 13.91589594 -65.5 11.5625 C-65.07203125 10.93859375 -64.6440625 10.3146875 -64.203125 9.671875 C-49.29067732 -9.80202727 -19.88327785 -13.41169552 0 0 Z M-94.5 320.5625 C-94.83 321.2225 -95.16 321.8825 -95.5 322.5625 C-94.84 322.5625 -94.18 322.5625 -93.5 322.5625 C-93.83 321.9025 -94.16 321.2425 -94.5 320.5625 Z " fill="#0E1723" transform="translate(200.5,115.4375)"/>
<path d="M0 0 C3.67277659 0.01068727 7.34506085 0.00007695 11.01782227 -0.01269531 C23.61230942 -0.01908375 35.9235701 0.31570004 48.37915039 2.26074219 C49.52261968 9.73488583 50.66147821 17.20972151 51.79711914 24.68505859 C52.18407513 27.2285151 52.57209015 29.77181071 52.96118164 32.31494141 C53.51995239 35.96833279 54.0749242 39.62228398 54.62915039 43.27636719 C54.80414063 44.41503235 54.97913086 45.55369751 55.15942383 46.72686768 C55.31958984 47.78766541 55.47975586 48.84846313 55.64477539 49.94140625 C55.8579541 51.34039154 55.8579541 51.34039154 56.07543945 52.76763916 C56.37915039 55.26074219 56.37915039 55.26074219 56.37915039 59.26074219 C56.97195801 59.2973999 57.56476563 59.33405762 58.17553711 59.37182617 C64.91360302 59.90239804 71.04838991 61.36928659 77.50415039 63.32324219 C78.46063477 63.60490234 79.41711914 63.8865625 80.40258789 64.17675781 C82.73058526 64.86351704 85.05586472 65.55824165 87.37915039 66.26074219 C98.94513236 52.10206792 110.26402352 37.77550656 121.37915039 23.26074219 C126.41374632 23.85766776 130.72737607 25.44844732 135.31665039 27.51074219 C136.47487305 28.03039551 136.47487305 28.03039551 137.65649414 28.56054688 C189.46725134 52.43694408 189.46725134 52.43694408 196.37915039 66.26074219 C195.44352499 69.10550027 194.43565297 71.85420556 193.33618164 74.63574219 C193.01131271 75.47484131 192.68644379 76.31394043 192.35173035 77.1784668 C191.30553964 79.87540981 190.24869246 82.56803624 189.19165039 85.26074219 C188.49759941 87.04562966 187.80423185 88.83078304 187.11157227 90.61621094 C186.43665147 92.35196946 185.76152475 94.08764793 185.08618164 95.82324219 C184.75876984 96.66556396 184.43135803 97.50788574 184.09402466 98.37573242 C182.13390918 103.39668345 180.10618149 108.37696963 177.88183594 113.28808594 C177.21299455 115.91277677 177.60638679 117.68600914 178.37915039 120.26074219 C180.34995345 122.46001982 180.34995345 122.46001982 182.87915039 124.44824219 C187.56253088 128.41573452 191.38489158 132.66880256 195.17602539 137.48730469 C197.2369543 139.5535103 197.2369543 139.5535103 199.90332031 139.10791016 C204.52336 137.98186269 208.79638671 136.26862887 213.19555664 134.47949219 C214.12963852 134.10594604 215.0637204 133.7323999 216.02610779 133.34753418 C219.00026617 132.15760364 221.9712007 130.95989788 224.94165039 129.76074219 C227.91589963 128.56218927 230.89082634 127.36545972 233.86790466 126.1739502 C235.71715958 125.43366146 237.56478194 124.68927809 239.41053772 123.94030762 C240.25168625 123.60325806 241.09283478 123.2662085 241.95947266 122.91894531 C242.69416275 122.62217896 243.42885284 122.3254126 244.18580627 122.01965332 C246.56201143 121.19747109 248.90619517 120.70151896 251.37915039 120.26074219 C265.61703514 137.16325899 276.93365489 156.48027216 286.46655273 176.36621094 C287.37665969 178.25557155 288.30813193 180.13324939 289.24243164 182.01074219 C289.80317383 183.16574219 290.36391602 184.32074219 290.94165039 185.51074219 C291.43793945 186.52652344 291.93422852 187.54230469 292.44555664 188.58886719 C293.37915039 191.26074219 293.37915039 191.26074219 293.39086914 193.29980469 C291.81071174 196.36250358 289.26560825 198.26106732 286.62915039 200.38574219 C286.04568848 200.8672876 285.46222656 201.34883301 284.86108398 201.8449707 C280.45457657 205.4566971 275.96252947 208.95606382 271.421875 212.39746094 C268.33979369 214.73543112 265.30171725 217.11665585 262.29711914 219.55371094 C261.61375488 220.10744385 260.93039062 220.66117676 260.22631836 221.23168945 C258.89003321 222.31800238 257.55691238 223.40822166 256.22729492 224.50268555 C251.5984766 228.26074219 251.5984766 228.26074219 249.37915039 228.26074219 C249.7052832 229.19273437 250.03141602 230.12472656 250.36743164 231.08496094 C257.37915039 251.42243373 257.37915039 251.42243373 257.37915039 260.26074219 C258.36197998 260.3688623 259.34480957 260.47698242 260.35742188 260.58837891 C272.09688972 261.90905894 283.76451277 263.60328049 295.44165039 265.38574219 C297.29122106 265.66594573 299.14083027 265.94589497 300.99047852 266.22558594 C305.45381698 266.9010534 309.91662647 267.57991507 314.37915039 268.26074219 C316.34252276 280.4759148 316.69019717 292.46740625 316.63989258 304.82202148 C316.62922632 307.92614545 316.63981884 311.02968317 316.65258789 314.13378906 C316.6604067 327.28620603 315.87722288 340.1952637 314.37915039 353.26074219 C308.49075884 355.12264793 302.62426032 356.10012021 296.51977539 356.98730469 C294.9804837 357.21611832 294.9804837 357.21611832 293.41009521 357.44955444 C291.25215872 357.76936968 289.09388629 358.08692544 286.93530273 358.40234375 C283.62541325 358.8862886 280.31668398 359.3776247 277.00805664 359.87011719 C274.90786013 360.18044581 272.80760178 360.4903563 270.70727539 360.79980469 C269.716651 360.94664703 268.72602661 361.09348938 267.7053833 361.24478149 C266.78722839 361.37847137 265.86907349 361.51216125 264.9230957 361.64990234 C263.71233368 361.8273851 263.71233368 361.8273851 262.47711182 362.00845337 C260.37915039 362.26074219 260.37915039 362.26074219 257.37915039 362.26074219 C257.27731445 363.33324219 257.17547852 364.40574219 257.07055664 365.51074219 C256.35620243 371.22557589 254.81381267 376.70977857 253.31665039 382.26074219 C253.03499023 383.32164062 252.75333008 384.38253906 252.46313477 385.47558594 C251.77311906 388.0719162 251.07835836 390.6668753 250.37915039 393.26074219 C258.43833217 399.94830474 266.49935651 406.62757439 274.75415039 413.07324219 C275.88045899 413.95604638 277.0067612 414.83885871 278.13305664 415.72167969 C279.76264075 416.99819538 281.3939228 418.2721741 283.03100586 419.5390625 C284.59173982 420.7495807 286.14194552 421.97363628 287.69165039 423.19824219 C289.01616211 424.23271484 289.01616211 424.23271484 290.36743164 425.28808594 C292.60696809 427.48413625 293.08242645 428.19259668 293.37915039 431.26074219 C292.41381836 434.02783203 292.41381836 434.02783203 290.87133789 437.22167969 C290.30342529 438.40463623 289.7355127 439.58759277 289.15039062 440.80639648 C288.51953484 442.08345058 287.88742496 443.35988581 287.25415039 444.63574219 C286.93680939 445.28290192 286.61946838 445.93006165 286.29251099 446.59683228 C278.42809385 462.61835001 269.66635129 477.95084449 259.31665039 492.51074219 C258.51215454 493.64709106 258.51215454 493.64709106 257.69140625 494.80639648 C257.18488525 495.49773682 256.67836426 496.18907715 256.15649414 496.90136719 C255.7155542 497.5049707 255.27461426 498.10857422 254.8203125 498.73046875 C253.08018213 500.57819654 251.7685348 501.38606626 249.37915039 502.26074219 C247.10951233 501.77320862 247.10951233 501.77320862 244.59814453 500.7277832 C243.65358902 500.34401016 242.70903351 499.96023712 241.7358551 499.56483459 C240.72224411 499.13577316 239.70863312 498.70671173 238.66430664 498.26464844 C237.61641464 497.83772202 236.56852264 497.41079559 235.48887634 496.97093201 C232.13359602 495.60295299 228.78704152 494.21521486 225.44165039 492.82324219 C222.09951719 491.43571049 218.7558372 490.05298528 215.40513611 488.68626404 C213.31877968 487.83512437 211.23729265 486.97192917 209.16139221 486.09559631 C208.21368454 485.70867111 207.26597687 485.32174591 206.28955078 484.9230957 C205.46000381 484.57730972 204.63045685 484.23152374 203.77577209 483.8752594 C200.9319869 483.1460851 199.1728039 483.4260605 196.37915039 484.26074219 C194.65752727 485.5422551 194.65752727 485.5422551 193.25805664 487.24511719 C192.7147168 487.85097656 192.17137695 488.45683594 191.61157227 489.08105469 C191.06049805 489.71785156 190.50942383 490.35464844 189.94165039 491.01074219 C188.84248096 492.25879793 187.73964908 493.50363833 186.63305664 494.74511719 C186.0995459 495.34904297 185.56603516 495.95296875 185.01635742 496.57519531 C183.41462747 498.22421762 181.76626041 499.49626954 179.90649414 500.83886719 C179.0724707 501.63808594 178.23844727 502.43730469 177.37915039 503.26074219 C177.67016835 508.28033857 179.55976885 512.74855664 181.39868164 517.37011719 C181.69852463 518.13696838 181.99836761 518.90381958 182.30729675 519.69390869 C183.26330962 522.13502878 184.22736688 524.572879 185.19165039 527.01074219 C185.82824465 528.63293148 186.46431723 530.25532561 187.09985352 531.87792969 C187.40954071 532.66687622 187.71922791 533.45582275 188.03829956 534.26867676 C188.64893019 535.82452185 189.25858505 537.38075029 189.86721802 538.93737793 C191.12720717 542.14669415 192.40927105 545.32963108 193.79077148 548.48925781 C194.17442871 549.36775391 194.55808594 550.24625 194.95336914 551.15136719 C195.28296631 551.8684082 195.61256348 552.58544922 195.95214844 553.32421875 C196.37915039 555.26074219 196.37915039 555.26074219 195.69360352 557.33520508 C194.24179508 559.46195343 192.86087683 560.6768125 190.77368164 562.17871094 C190.04576416 562.70601807 189.31784668 563.2333252 188.56787109 563.77661133 C187.78371826 564.32824951 186.99956543 564.8798877 186.19165039 565.44824219 C185.37720459 566.02630615 184.56275879 566.60437012 183.72363281 567.19995117 C138.06831759 599.26074219 138.06831759 599.26074219 121.37915039 599.26074219 C119.52217889 597.27854728 117.97002946 595.37936045 116.37915039 593.19824219 C115.40093241 591.90455554 114.42173231 590.61161105 113.44165039 589.31933594 C112.68561523 588.31169189 112.68561523 588.31169189 111.91430664 587.28369141 C109.46640536 584.05797417 106.92169343 580.91200482 104.37915039 577.76074219 C98.65994234 570.6351408 93.01086621 563.45559173 87.37915039 556.26074219 C86.25637695 556.59847656 85.13360352 556.93621094 83.97680664 557.28417969 C63.52838377 563.3963311 63.52838377 563.3963311 56.37915039 563.26074219 C56.2205957 564.53820312 56.06204102 565.81566406 55.89868164 567.13183594 C53.69791426 584.55551956 51.05882139 601.90569789 48.37915039 619.26074219 C34.85446819 623.36946679 20.44279872 622.44704879 6.43286133 622.44604492 C3.01899767 622.44823267 -0.39454278 622.46644599 -3.80834961 622.48535156 C-6.02449436 622.4882865 -8.24064061 622.49027062 -10.45678711 622.49121094 C-11.45414886 622.49839645 -12.45151062 622.50558197 -13.47909546 622.51298523 C-21.65971594 622.48724941 -29.54320089 621.47622933 -37.62084961 620.26074219 C-37.78149399 619.20251755 -37.94213837 618.14429291 -38.10765076 617.05400085 C-39.6203392 607.0916815 -41.13580497 597.12978811 -42.654006 587.1683073 C-43.43447731 582.04674312 -44.21396199 576.92503279 -44.99121094 571.80297852 C-45.74103242 566.86191336 -46.4934206 561.92124533 -47.24760628 556.9808445 C-47.53519615 555.09390045 -47.82185361 553.20681405 -48.10757256 551.3195858 C-48.50725171 548.68069428 -48.91021322 546.04232378 -49.31396484 543.40405273 C-49.43192917 542.62002579 -49.54989349 541.83599884 -49.6714325 541.0282135 C-50.13830208 537.99610821 -50.64853985 535.17767148 -51.62084961 532.26074219 C-54.5408447 531.25279409 -57.38948355 530.41728422 -60.37084961 529.63574219 C-93.44530832 520.30590298 -123.90849318 502.30422662 -148.86694336 478.80371094 C-150.8009637 477.01782833 -152.72399049 475.33192686 -154.75756836 473.67089844 C-157.09250035 471.70547819 -159.04068932 469.83311532 -160.99584961 467.51074219 C-163.5647589 464.4975426 -166.1645498 461.52115255 -168.80834961 458.57324219 C-176.62084961 449.7595286 -176.62084961 449.7595286 -176.62084961 446.26074219 C-174.97084961 445.60074219 -173.32084961 444.94074219 -171.62084961 444.26074219 C-170.93120117 445.08316406 -170.24155273 445.90558594 -169.53100586 446.75292969 C-158.37041405 460.0266042 -147.23582344 472.45041747 -133.62084961 483.26074219 C-132.64245117 484.05609375 -131.66405273 484.85144531 -130.65600586 485.67089844 C-121.80321671 492.71517328 -112.39003799 498.57423276 -102.62084961 504.26074219 C-101.70577637 504.80577393 -101.70577637 504.80577393 -100.7722168 505.36181641 C-83.79705154 515.41885561 -64.26171057 522.57586295 -45.0012207 526.74169922 C-43.40336176 527.09011441 -41.80975921 527.45860534 -40.22094727 527.84619141 C13.65452425 540.80465451 73.31706367 527.9789879 120.37915039 500.26074219 C125.88932187 496.83938571 131.16643564 493.11647887 136.37915039 489.26074219 C136.97002441 488.82681152 137.56089844 488.39288086 138.16967773 487.94580078 C145.4322056 482.56517621 152.20526286 476.73427107 158.81665039 470.57324219 C159.46698242 469.96770508 160.11731445 469.36216797 160.78735352 468.73828125 C186.58216509 444.28225486 204.85296608 412.08545989 215.66064453 378.46972656 C216.14314204 376.98632953 216.64263226 375.50836149 217.15820312 374.03613281 C219.05613094 368.5914041 220.36034982 363.17088346 221.44165039 357.51074219 C221.60213867 356.70636719 221.76262695 355.90199219 221.92797852 355.07324219 C222.43694356 352.47322799 222.90891246 349.86802056 223.37915039 347.26074219 C223.56082764 346.34873047 223.74250488 345.43671875 223.9296875 344.49707031 C225.86356279 333.80991052 225.82103029 323.08653537 225.81665039 312.26074219 C225.81705322 311.2421814 225.81745605 310.22362061 225.81787109 309.17419434 C225.74311796 276.29957018 219.12909128 244.8329921 204.37915039 215.26074219 C203.984375 214.46555176 203.58959961 213.67036133 203.18286133 212.85107422 C189.17054018 184.88668819 169.86000002 159.81094182 145.37915039 140.26074219 C144.58766602 139.60203125 143.79618164 138.94332031 142.98071289 138.26464844 C121.97246463 120.92062952 97.24641192 108.52867383 71.37915039 100.26074219 C70.67757812 100.0206543 69.97600586 99.78056641 69.25317383 99.53320312 C46.29469289 91.67927996 19.51169202 88.82072539 -4.62084961 90.26074219 C-5.53044434 90.31149902 -6.44003906 90.36225586 -7.37719727 90.41455078 C-22.3135007 91.32539647 -37.11357821 93.55541296 -51.62084961 97.26074219 C-50.58590187 87.97056422 -49.44097328 78.70253571 -48.12084961 69.44824219 C-47.94332153 68.19781128 -47.94332153 68.19781128 -47.76220703 66.92211914 C-47.13555304 62.58312439 -46.45685543 58.25791621 -45.71850586 53.93652344 C-44.00951845 43.79398399 -42.61383791 33.60058136 -41.14990234 23.42041016 C-40.75524887 20.67943141 -40.35810827 17.9388217 -39.96069336 15.19824219 C-39.84088608 14.35970703 -39.7210788 13.52117188 -39.59764099 12.65722656 C-39.48404739 11.87541016 -39.3704538 11.09359375 -39.25341797 10.28808594 C-39.10591347 9.2631604 -39.10591347 9.2631604 -38.95542908 8.2175293 C-38.61029982 6.19904175 -38.1422419 4.24036387 -37.62084961 2.26074219 C-25.16421783 -0.27947909 -12.65514712 -0.0437807 0 0 Z " fill="#D5A31B" transform="translate(282.620849609375,19.7392578125)"/>
<path d="M0 0 C3.88005675 3.57019111 6.55864052 7.18111887 9 11.875 C9.5115564 12.84651001 9.5115564 12.84651001 10.03344727 13.83764648 C15.46814748 24.49510517 19.12102087 35.7138069 19.1328125 47.75390625 C19.13410156 49.02041016 19.13539063 50.28691406 19.13671875 51.59179688 C19.13285156 52.90212891 19.12898438 54.21246094 19.125 55.5625 C19.12886719 56.87669922 19.13273437 58.19089844 19.13671875 59.54492188 C19.13542969 60.81013672 19.13414062 62.07535156 19.1328125 63.37890625 C19.13168457 64.5294751 19.13055664 65.68004395 19.12939453 66.86547852 C19.01243431 69.69878471 18.64911625 72.24592932 18 75 C31.92888056 53.36578126 39.84998395 30.88088684 46 6 C63.56994146 26.40732331 66.61469759 64.51565085 65 90 C61.98979406 129.46017644 46.12780248 163.68872084 20 193 C19.30777344 193.77730469 18.61554688 194.55460938 17.90234375 195.35546875 C6.89560688 206.99843318 -6.92958437 216.44112425 -21 224 C-21.63808594 224.34369629 -22.27617187 224.68739258 -22.93359375 225.04150391 C-39.48346165 233.77114957 -60.05667643 241.70160458 -79 241 C-76.07292425 238.72641093 -73.04658168 236.78904492 -69.875 234.875 C-60.20817818 228.74795981 -50.38396426 220.36238272 -44.46484375 210.421875 C-43 208 -43 208 -41.46875 206.5 C-31.19806265 196.01078739 -30.6875 176.21668761 -30.6875 162.44604492 C-30.88674207 150.70547934 -33.75818509 140.94475739 -39.25 130.625 C-42.49936749 124.50927588 -44.3066093 119.9239125 -43 113 C-42.83886719 112.03578125 -42.67773438 111.0715625 -42.51171875 110.078125 C-40.00629374 97.96600901 -33.96134898 90.74938905 -25.32275391 82.38110352 C-9.19213194 66.55978335 0.72355606 44.24664775 1.1328125 21.5625 C1.13542562 20.04166668 1.13278575 18.52081563 1.125 17 C1.12886719 16.24460937 1.13273437 15.48921875 1.13671875 14.7109375 C1.12815061 9.72428207 0.70682718 4.9365708 0 0 Z " fill="#D5A21B" transform="translate(353,292)"/>
<path d="M0 0 C3.44912681 2.61888465 6.60122681 5.33243845 9.5 8.5625 C9.97566406 9.0575 10.45132813 9.5525 10.94140625 10.0625 C12.375 11.625 12.375 11.625 14.5 14.5625 C14.3125 16.9375 14.3125 16.9375 13.5 18.5625 C10.11665449 17.43471816 9.52299061 16.59890113 7.375 13.875 C-0.50092954 4.72189269 -10.30380692 0.73173026 -22.234375 -0.78515625 C-32.33965628 -1.15525413 -40.47021261 1.93243633 -48.40625 8.0390625 C-50.5 9.5625 -50.5 9.5625 -53.5 10.5625 C-54.20394612 11.87653276 -54.86345658 13.2145257 -55.5 14.5625 C-56.11875 15.243125 -56.7375 15.92375 -57.375 16.625 C-64.22888724 26.09949119 -64.81105446 37.26413605 -63.5 48.5625 C-62.27507568 53.63093684 -60.21323831 57.66848577 -57.1875 61.875 C-55.5 64.5625 -55.5 64.5625 -55.42578125 66.84375 C-57.10172024 71.08539923 -60.42224323 73.06628169 -64 75.75 C-81.97577892 89.85312602 -93.1430367 107.68450922 -96.5 130.5625 C-97.8000427 146.18976226 -97.43989209 162.66152422 -89.76953125 176.73828125 C-88.5 179.5625 -88.5 179.5625 -88.453125 181.92578125 C-90.07077416 186.00008418 -92.62798463 189.26088219 -95.25 192.75 C-96.43768894 194.36183996 -97.62518339 195.97382325 -98.8125 197.5859375 C-99.42351562 198.40932617 -100.03453125 199.23271484 -100.6640625 200.08105469 C-103.55646066 203.99040773 -106.40414822 207.93169788 -109.25 211.875 C-109.79342041 212.62644287 -110.33684082 213.37788574 -110.89672852 214.15209961 C-114.76489542 219.51159381 -118.54595459 224.92341068 -122.2890625 230.37109375 C-126.29205835 236.14926974 -130.39981919 241.85306242 -134.5 247.5625 C-134.16226563 248.20316406 -133.82453125 248.84382813 -133.4765625 249.50390625 C-127.62921524 260.84370396 -126.26319039 270.95896605 -126.5 283.5625 C-128.1256807 283.25356068 -129.75052748 282.9402305 -131.375 282.625 C-132.73238281 282.36396484 -132.73238281 282.36396484 -134.1171875 282.09765625 C-136.5 281.5625 -136.5 281.5625 -138.5 280.5625 C-138.32636022 292.96559079 -138.32636022 292.96559079 -132.5 303.5625 C-130.20955047 305.32589985 -128.16678258 306.35490034 -125.5 307.5625 C-124.84 307.8925 -124.18 308.2225 -123.5 308.5625 C-108.03209174 310.80784152 -94.17966765 308.87755208 -79.5 303.5625 C-87.0641569 312.17515389 -103.74678618 314.79408093 -114.77490234 315.76220703 C-138.38102134 316.99378582 -158.05145591 309.22719023 -176.85546875 295.3359375 C-178.9764501 293.04870346 -179.3874441 291.67185664 -179.5 288.5625 C-178.48828125 286.23046875 -178.48828125 286.23046875 -176.8125 283.75 C-176.1628125 282.78707031 -175.513125 281.82414062 -174.84375 280.83203125 C-171.73793449 276.44965008 -168.50172884 272.16341644 -165.25488281 267.88500977 C-161.59135988 263.05248175 -158.0429008 258.15333954 -154.5625 253.1875 C-150.43671007 247.30305501 -146.27551018 241.44738259 -142.0625 235.625 C-141.52318848 234.87951904 -140.98387695 234.13403809 -140.42822266 233.3659668 C-138.23812663 230.34047668 -136.04627414 227.31626105 -133.85449219 224.29199219 C-127.39154929 215.37136452 -120.93385514 206.44762143 -114.62597656 197.41625977 C-112.52162428 194.40398704 -110.40257435 191.4359605 -108.16015625 188.5234375 C-104.50733152 183.87225341 -104.50733152 183.87225341 -103.3125 178.25 C-103.704375 177.033125 -104.09625 175.81625 -104.5 174.5625 C-105.16879375 172.39648896 -105.83524377 170.22975357 -106.5 168.0625 C-106.850625 167.0003125 -107.20125 165.938125 -107.5625 164.84375 C-114.07341258 142.05555598 -109.71782072 116.56141048 -98.53515625 96.08203125 C-91.52550105 83.75993402 -82.2892321 73.69381228 -71.5 64.5625 C-71.70496094 63.92183594 -71.90992188 63.28117187 -72.12109375 62.62109375 C-76.81661702 47.54599272 -77.28337551 33.17798734 -70.109375 18.76953125 C-68.67583447 16.27592523 -67.15238439 13.91589594 -65.5 11.5625 C-65.07203125 10.93859375 -64.6440625 10.3146875 -64.203125 9.671875 C-49.29067732 -9.80202727 -19.88327785 -13.41169552 0 0 Z " fill="#0B0B0B" transform="translate(200.5,115.4375)"/>
<path d="M0 0 C5.48890664 4.78479034 7.97729916 13.19636989 10 20 C10.33 18.35 10.66 16.7 11 15 C23.59470014 24.11105967 31.20094815 40.63351129 34.375 55.5625 C35.89490591 66.1078266 35.53397478 75.93121842 32 86 C31.7215625 86.84175781 31.443125 87.68351562 31.15625 88.55078125 C26.51290367 101.42005578 16.76124255 112.72212112 6 121 C6 117.01187551 7.30585664 116.36516411 10.0625 113.5625 C21.63435851 101.02631994 27.49947926 85.7399187 27.34375 68.70703125 C26.34212092 57.90537219 22.19288274 47.85305573 16 39 C15.14341797 39.42925781 15.14341797 39.42925781 14.26953125 39.8671875 C13.52058594 40.24101562 12.77164063 40.61484375 12 41 C11.30261719 41.35320312 10.60523438 41.70640625 9.88671875 42.0703125 C3.59213154 45.08903106 -0.81105846 45.63778831 -7.75 44.25 C-11.25882183 42.90045314 -12.37563749 42.33896738 -14 39 C-14.6875 35.25 -14.6875 35.25 -15 32 C-14.11248047 32.08701172 -14.11248047 32.08701172 -13.20703125 32.17578125 C-8.84488043 32.4248437 -6.70107004 32.50715705 -3.0625 29.875 C0.39524464 25.05511353 1.4023031 20.90044549 1 15 C0.67 14.34 0.34 13.68 0 13 C-0.928125 13.639375 -1.85625 14.27875 -2.8125 14.9375 C-6.68467408 17.4430244 -9.17925935 18.12783682 -13.6875 18.0625 C-14.89986328 18.04896484 -14.89986328 18.04896484 -16.13671875 18.03515625 C-16.75160156 18.02355469 -17.36648437 18.01195312 -18 18 C-18 17.67 -18 17.34 -18 17 C-17.40832031 16.87882812 -16.81664062 16.75765625 -16.20703125 16.6328125 C-9.87845758 15.44229729 -9.87845758 15.44229729 -4 13 C-1.79695634 9.05771135 -1.0375778 4.37264931 0 0 Z " fill="#090A0A" transform="translate(227,178)"/>
<path d="M0 0 C4.45806331 4.45806331 6.55254133 11.59999441 7.6875 17.6875 C6.64634818 22.70395876 4.06328421 25.95309243 1 30 C-0.01225029 31.35376938 -1.02392068 32.70797248 -2.03515625 34.0625 C-3.6662277 36.24402141 -5.30092948 38.42226318 -6.94824219 40.59155273 C-7.45645508 41.26130127 -7.96466797 41.9310498 -8.48828125 42.62109375 C-8.94759033 43.2236499 -9.40689941 43.82620605 -9.88012695 44.44702148 C-11.07526997 46.01686324 -11.07526997 46.01686324 -12 48 C-12.66 48 -13.32 48 -14 48 C-20.95988186 31.91770155 -20.95988186 31.91770155 -19 26 C-16.4300326 21.68203857 -13.51179805 17.74247006 -10.40771484 13.79736328 C-8.58973126 11.47617093 -6.83469368 9.11101871 -5.07788086 6.7434082 C-3.39929484 4.4849656 -1.70015205 2.24222951 0 0 Z " fill="#D5A21D" transform="translate(135,236)"/>
<path d="M0 0 C3.10081584 1.0380701 3.94822115 1.90922877 5.59765625 4.80078125 C14.85199197 26.98650875 15.85321633 49.15695302 7.30859375 71.875 C5.79795137 75.4825042 4.1124545 78.71395966 2 82 C1.67 81.34 1.34 80.68 1 80 C1.85546875 77.9609375 1.85546875 77.9609375 3.1875 75.375 C12.01558636 56.28857865 13.2200312 33.84414635 6 14 C4.50789376 10.67005558 2.93106641 7.45396719 1.171875 4.2578125 C0 2 0 2 0 0 Z " fill="#2C271E" transform="translate(310,418)"/>
<path d="M0 0 C0.33 0.99 0.66 1.98 1 3 C1.66 3 2.32 3 3 3 C2.99476318 3.89307861 2.98952637 4.78615723 2.98413086 5.70629883 C2.96708214 9.02173508 2.95454653 12.3371247 2.94506836 15.65258789 C2.94004158 17.08716568 2.93321921 18.52173836 2.92456055 19.95629883 C2.91242248 22.01905582 2.90675514 24.08174504 2.90234375 26.14453125 C2.89710693 27.38565674 2.89187012 28.62678223 2.88647461 29.90551758 C2.85611917 33.03708218 2.85611917 33.03708218 4 36 C3.44140625 38.26171875 3.44140625 38.26171875 2.5625 40.6875 C2.13130859 41.89986328 2.13130859 41.89986328 1.69140625 43.13671875 C1.34916016 44.05904297 1.34916016 44.05904297 1 45 C0.67 45 0.34 45 0 45 C0 30.15 0 15.3 0 0 Z " fill="#09090D" transform="translate(417,350)"/>
<path d="M0 0 C0.66 0.33 1.32 0.66 2 1 C1.814375 1.763125 1.62875 2.52625 1.4375 3.3125 C0.77180827 6.08967375 0.77180827 6.08967375 2 9 C-4.11980533 10.40454548 -9.71739294 11.23268915 -16 11 C-12.88565472 8.58841672 -9.64808253 6.46808917 -6.3125 4.375 C-2.98122189 2.41579346 -2.98122189 2.41579346 0 0 Z " fill="#CE9E22" transform="translate(290,522)"/>
<path d="M0 0 C0.33 0 0.66 0 1 0 C1.33 6.27 1.66 12.54 2 19 C2.33 18.34 2.66 17.68 3 17 C3.66 17 4.32 17 5 17 C4.36610765 20.49844386 2.94822306 22.84086876 0.9375 25.75 C0.38964844 26.54921875 -0.15820312 27.3484375 -0.72265625 28.171875 C-1.14417969 28.77515625 -1.56570313 29.3784375 -2 30 C-3.36299161 27.27401678 -2.71744184 25.8534405 -2.125 22.875 C-0.75749658 15.27981211 -0.37105431 7.69449464 0 0 Z " fill="#100F11" transform="translate(373,338)"/>
<path d="M0 0 C0.33 0 0.66 0 1 0 C0.98839844 0.75925781 0.97679687 1.51851563 0.96484375 2.30078125 C0.95582031 3.29464844 0.94679688 4.28851563 0.9375 5.3125 C0.92589844 6.29863281 0.91429687 7.28476562 0.90234375 8.30078125 C0.87670138 11.09963849 0.87670138 11.09963849 2 14 C1.34 14 0.68 14 0 14 C0 14.66 0 15.32 0 16 C-0.680625 16.6496875 -0.680625 16.6496875 -1.375 17.3125 C-3.34309231 19.35628817 -4.06726871 21.34530324 -5 24 C-6.15294668 20.54115996 -5.79943888 19.52872276 -4.78515625 16.11328125 C-4.37426758 14.7065918 -4.37426758 14.7065918 -3.95507812 13.27148438 C-3.66052734 12.29501953 -3.36597656 11.31855469 -3.0625 10.3125 C-2.77181641 9.32443359 -2.48113281 8.33636719 -2.18164062 7.31835938 C-1.46206783 4.8765304 -0.73459007 2.43734518 0 0 Z " fill="#0D0B0C" transform="translate(415,403)"/>
<path d="M0 0 C2.36270192 3.54405288 2.71333497 5.77169086 3 10 C2.10080633 13.8965059 1.12288864 16.44490929 -2 19 C-2.99 18.67 -3.98 18.34 -5 18 C-4.34 17.154375 -3.68 16.30875 -3 15.4375 C-0.72114909 11.520725 -0.57997717 9.45224201 -1 5 C-1.33 4.01 -1.66 3.02 -2 2 C-1.34 1.34 -0.68 0.68 0 0 Z " fill="#131E2C" transform="translate(142,245)"/>
<path d="M0 0 C2 1 2 1 2 1 Z M1 2 C-3.65765772 6.25264401 -9.81742008 8 -16 8 C-16 7.34 -16 6.68 -16 6 C-13.73291675 5.1344953 -11.46224921 4.28240685 -9.1875 3.4375 C-8.54490234 3.19064453 -7.90230469 2.94378906 -7.24023438 2.68945312 C-2.33984375 0.88671875 -2.33984375 0.88671875 1 2 Z " fill="#0B0B0B" transform="translate(364,518)"/>
<path d="M0 0 C0.99 0.33 1.98 0.66 3 1 C2.566875 2.08087891 2.566875 2.08087891 2.125 3.18359375 C1.413027 4.96599838 0.70427949 6.74969771 0 8.53515625 C-0.33 9.36917969 -0.66 10.20320313 -1 11.0625 C-1.33 11.89910156 -1.66 12.73570312 -2 13.59765625 C-2.91192449 15.78841236 -3.91010437 17.89319283 -5 20 C-5.31233884 14.06556211 -4.88774951 10.24073059 -2 5 C-1.01 4.67 -0.02 4.34 1 4 C0.67 2.68 0.34 1.36 0 0 Z " fill="#0B0C0F" transform="translate(315,383)"/>
<path d="M0 0 C0.66 0.33 1.32 0.66 2 1 C-1.625 6.875 -1.625 6.875 -5 8 C-6.38576923 9.62332967 -7.72641268 11.28724465 -9 13 C-9.66 12.67 -10.32 12.34 -11 12 C-9.54234835 10.37438849 -8.08385614 8.74953066 -6.625 7.125 C-5.81289062 6.22007812 -5.00078125 5.31515625 -4.1640625 4.3828125 C-2.80923795 2.89103817 -1.42494565 1.42494565 0 0 Z " fill="#172439" transform="translate(131,194)"/>
<path d="M0 0 C0.66 0 1.32 0 2 0 C3.46845421 5.47332932 2.44038726 8.11922548 0 13 C-1.25069801 10.49860398 -1.13302467 8.72607309 -1.125 5.9375 C-1.12757813 5.03902344 -1.13015625 4.14054687 -1.1328125 3.21484375 C-1 1 -1 1 0 0 Z " fill="#0B1016" transform="translate(348,332)"/>
<path d="M0 0 C0.66 0.33 1.32 0.66 2 1 C-2.62 5.62 -7.24 10.24 -12 15 C-12 11.11566834 -10.82920314 10.32394504 -8.25 7.5 C-7.55390625 6.7265625 -6.8578125 5.953125 -6.140625 5.15625 C-4.19891408 3.20036601 -2.25069252 1.58156772 0 0 Z " fill="#A8A8A8" transform="translate(135,105)"/>
<path d="M0 0 C2.5 1.75 2.5 1.75 5 4 C5 5.32 5 6.64 5 8 C4.01 8.33 3.02 8.66 2 9 C0.4375 7.3125 0.4375 7.3125 -1 5 C-0.6875 2.25 -0.6875 2.25 0 0 Z " fill="#D6A523" transform="translate(125,484)"/>
<path d="M0 0 C0.33 0.66 0.66 1.32 1 2 C0.01 3.485 0.01 3.485 -1 5 C-1.103125 5.804375 -1.20625 6.60875 -1.3125 7.4375 C-2.24562075 10.91549551 -4.10633809 11.9966956 -7 14 C-7.66 13.67 -8.32 13.34 -9 13 C-6.03 8.71 -3.06 4.42 0 0 Z " fill="#D4A42A" transform="translate(477,446)"/>
<path d="M0 0 C0.66 0 1.32 0 2 0 C2.06058594 0.61488281 2.12117188 1.22976563 2.18359375 1.86328125 C2.26738281 2.67152344 2.35117187 3.47976563 2.4375 4.3125 C2.51871094 5.11300781 2.59992188 5.91351563 2.68359375 6.73828125 C2.95265693 9.16087179 2.95265693 9.16087179 4 12 C3.01 12 2.02 12 1 12 C-1.23551759 8.64672361 -1.17283528 8.09256343 -0.625 4.3125 C-0.51414062 3.50425781 -0.40328125 2.69601562 -0.2890625 1.86328125 C-0.19367188 1.24839844 -0.09828125 0.63351562 0 0 Z " fill="#080809" transform="translate(308,406)"/>
<path d="M0 0 C0.66 0 1.32 0 2 0 C2 0.99 2 1.98 2 3 C1.34 3.66 0.68 4.32 0 5 C-1.01241685 6.32392972 -2.01439389 7.65599167 -3 9 C-3.99 8.67 -4.98 8.34 -6 8 C-5.04956626 6.66102417 -4.08940853 5.32894573 -3.125 4 C-2.59132812 3.2575 -2.05765625 2.515 -1.5078125 1.75 C-1.01023438 1.1725 -0.51265625 0.595 0 0 Z " fill="#131E29" transform="translate(131,272)"/>
<path d="M0 0 C0.99 0.495 0.99 0.495 2 1 C1.67 1.66 1.34 2.32 1 3 C1.66 3.33 2.32 3.66 3 4 C2.01 7.465 2.01 7.465 1 11 C1.66 11 2.32 11 3 11 C2.67 12.65 2.34 14.3 2 16 C1.34 15.67 0.68 15.34 0 15 C0 10.05 0 5.1 0 0 Z " fill="#19293E" transform="translate(136,146)"/>
<path d="M0 0 C0.66 0.33 1.32 0.66 2 1 C-2.06153846 6.78461538 -2.06153846 6.78461538 -6.8125 7.875 C-7.864375 7.91625 -8.91625 7.9575 -10 8 C-7.92141021 5.81907964 -5.78143382 4.03609531 -3.3125 2.3125 C-2.68988281 1.87550781 -2.06726563 1.43851563 -1.42578125 0.98828125 C-0.95527344 0.66214844 -0.48476563 0.33601562 0 0 Z " fill="#AB882F" transform="translate(290,522)"/>
<path d="M0 0 C-3.01887244 3.48331435 -5.56909529 4.79157144 -10 6 C-7.82304683 0.97626191 -5.41372848 -0.29263397 0 0 Z " fill="#111111" transform="translate(397,504)"/>
<path d="M0 0 C-2.475 4.455 -2.475 4.455 -5 9 C-5.33 9 -5.66 9 -6 9 C-6.20086443 5.28400809 -6.1519437 4.22791555 -4 1 C-4.66 0.67 -5.32 0.34 -6 0 C-2.25 -1.125 -2.25 -1.125 0 0 Z " fill="#121414" transform="translate(385,345)"/>
<path d="M0 0 C0.33 0 0.66 0 1 0 C1.33 2.97 1.66 5.94 2 9 C0.35 9.33 -1.3 9.66 -3 10 C-2.67 8.35 -2.34 6.7 -2 5 C-1.34 5 -0.68 5 0 5 C0 3.35 0 1.7 0 0 Z " fill="#22292B" transform="translate(115,264)"/>
<path d="M0 0 C0.33 0 0.66 0 1 0 C1.02712066 1.43739513 1.04645067 2.87493863 1.0625 4.3125 C1.07410156 5.11300781 1.08570313 5.91351563 1.09765625 6.73828125 C1 9 1 9 0 12 C-0.66 12 -1.32 12 -2 12 C-1.85962479 10.18706911 -1.71255111 8.3746557 -1.5625 6.5625 C-1.48128906 5.55316406 -1.40007812 4.54382812 -1.31640625 3.50390625 C-1 1 -1 1 0 0 Z " fill="#D6A629" transform="translate(243,39)"/>
<path d="M0 0 C0.99 0 1.98 0 3 0 C4 3 4 3 3 6 C3.27571139 8.00875442 3.60235737 10.01178687 4 12 C1.49484216 9.49484216 0.94900914 7.38931835 0 4 C0 2.68 0 1.36 0 0 Z " fill="#0B0F15" transform="translate(408,314)"/>
<path d="M0 0 C3.82097239 0.53069061 6.06171403 1.49701566 9 4 C7.02 4.66 5.04 5.32 3 6 C2.814375 5.071875 2.814375 5.071875 2.625 4.125 C2.12802644 1.80879168 2.12802644 1.80879168 0 0 Z " fill="#D3A529" transform="translate(419,49)"/>
<path d="M0 0 C0.99 0 1.98 0 3 0 C1.68775452 3.93673644 0.08089673 6.22719294 -3 9 C-2.67 7.02 -2.34 5.04 -2 3 C-1.34 3 -0.68 3 0 3 C0 2.01 0 1.02 0 0 Z " fill="#101212" transform="translate(340,354)"/>
<path d="M0 0 C0.66 0 1.32 0 2 0 C2 0.66 2 1.32 2 2 C2.66 2 3.32 2 4 2 C4 2.99 4 3.98 4 5 C4.66 5 5.32 5 6 5 C5.67 6.32 5.34 7.64 5 9 C4.34 9 3.68 9 3 9 C2.01 6.03 1.02 3.06 0 0 Z " fill="#CC9E25" transform="translate(118,275)"/>
<path d="M0 0 C1.9375 0.375 1.9375 0.375 4 1 C4.33 1.66 4.66 2.32 5 3 C4.34 3 3.68 3 3 3 C3.33 3.99 3.66 4.98 4 6 C2.35 5.67 0.7 5.34 -1 5 C-0.67 3.35 -0.34 1.7 0 0 Z " fill="#D29F18" transform="translate(141,499)"/>
<path d="M0 0 C0.99 0.33 1.98 0.66 3 1 C0.69 3.31 -1.62 5.62 -4 8 C-4.66 7.67 -5.32 7.34 -6 7 C-4.02 4.69 -2.04 2.38 0 0 Z " fill="#1C1C1C" transform="translate(141,120)"/>
<path d="M0 0 C0.66 0 1.32 0 2 0 C1.625 2.4375 1.625 2.4375 1 5 C0.01 5.495 0.01 5.495 -1 6 C-1.65555119 8.52733235 -1.65555119 8.52733235 -2 11 C-2.33 11 -2.66 11 -3 11 C-3.3227506 6.37390802 -2.84450614 3.71973879 0 0 Z " fill="#080808" transform="translate(405,436)"/>
<path d="M0 0 C0.82810826 3.31243305 1.09278428 5.65976579 1 9 C-0.32 9.33 -1.64 9.66 -3 10 C-2.01 6.7 -1.02 3.4 0 0 Z " fill="#D5A933" transform="translate(496,405)"/>
<path d="M0 0 C0.66 0.33 1.32 0.66 2 1 C1.67 2.32 1.34 3.64 1 5 C-0.32 5.33 -1.64 5.66 -3 6 C-2.625 3.5625 -2.625 3.5625 -2 1 C-1.34 0.67 -0.68 0.34 0 0 Z " fill="#132130" transform="translate(129,239)"/>
<path d="M0 0 C0.99 0.66 1.98 1.32 3 2 C1.02 2.99 -0.96 3.98 -3 5 C-3.66 4.34 -4.32 3.68 -5 3 C-3.35 2.01 -1.7 1.02 0 0 Z " fill="#0C0C0C" transform="translate(375,513)"/>
<path d="M0 0 C2.99324263 1.0975223 3.84610901 1.67682892 5.25 4.625 C5.4975 5.40875 5.745 6.1925 6 7 C5.01 7 4.02 7 3 7 C0 2.77777778 0 2.77777778 0 0 Z " fill="#18140F" transform="translate(310,418)"/>
<path d="M0 0 C0.99 0.66 1.98 1.32 3 2 C-0.465 3.485 -0.465 3.485 -4 5 C-4.33 4.34 -4.66 3.68 -5 3 C-3.35 2.01 -1.7 1.02 0 0 Z " fill="#151515" transform="translate(369,516)"/>
<path d="M0 0 C-1.125 1.5 -1.125 1.5 -3 3 C-6.1875 3.1875 -6.1875 3.1875 -9 3 C-9.33 2.34 -9.66 1.68 -10 1 C-3.375 -1.125 -3.375 -1.125 0 0 Z " fill="#17273A" transform="translate(249,138)"/>
<path d="" fill="#000000" transform="translate(0,0)"/>
<path d="" fill="#000000" transform="translate(0,0)"/>
<path d="" fill="#000000" transform="translate(0,0)"/>
<path d="" fill="#000000" transform="translate(0,0)"/>
<path d="" fill="#000000" transform="translate(0,0)"/>
<path d="" fill="#000000" transform="translate(0,0)"/>
<path d="" fill="#000000" transform="translate(0,0)"/>
<path d="" fill="#000000" transform="translate(0,0)"/>
<path d="" fill="#000000" transform="translate(0,0)"/>
<path d="" fill="#000000" transform="translate(0,0)"/>
<path d="" fill="#000000" transform="translate(0,0)"/>
<path d="" fill="#000000" transform="translate(0,0)"/>
<path d="" fill="#000000" transform="translate(0,0)"/>
<path d="" fill="#000000" transform="translate(0,0)"/>
<path d="" fill="#000000" transform="translate(0,0)"/>
<path d="" fill="#000000" transform="translate(0,0)"/>
<path d="" fill="#000000" transform="translate(0,0)"/>
<path d="" fill="#000000" transform="translate(0,0)"/>
<path d="" fill="#000000" transform="translate(0,0)"/>
<path d="" fill="#000000" transform="translate(0,0)"/>
<path d="" fill="#000000" transform="translate(0,0)"/>
<path d="" fill="#000000" transform="translate(0,0)"/>
<path d="" fill="#000000" transform="translate(0,0)"/>
<path d="" fill="#000000" transform="translate(0,0)"/>
<path d="" fill="#000000" transform="translate(0,0)"/>
<path d="" fill="#000000" transform="translate(0,0)"/>
<path d="" fill="#000000" transform="translate(0,0)"/>
<path d="" fill="#000000" transform="translate(0,0)"/>
<path d="" fill="#000000" transform="translate(0,0)"/>
<path d="" fill="#000000" transform="translate(0,0)"/>
<path d="" fill="#000000" transform="translate(0,0)"/>
<path d="" fill="#000000" transform="translate(0,0)"/>
<path d="" fill="#000000" transform="translate(0,0)"/>
<path d="" fill="#000000" transform="translate(0,0)"/>
<path d="" fill="#000000" transform="translate(0,0)"/>
</svg>
